<?xml version="1.0" standalone="no"?>
<!DOCTYPE svg PUBLIC "-//W3C//DTD SVG 20010904//EN"
 "http://www.w3.org/TR/2001/REC-SVG-20010904/DTD/svg10.dtd">
<svg version="1.0" xmlns="http://www.w3.org/2000/svg"
 width="234.000000pt" height="234.000000pt" viewBox="0 0 234.000000 234.000000"
 preserveAspectRatio="xMidYMid meet">
<metadata>
Created by potrace 1.11, written by Peter Selinger 2001-2013
</metadata>
<g transform="translate(0.000000,234.000000) scale(0.100000,-0.100000)"
fill="#000000" stroke="none">
<path d="M1070 2325 c0 -2 9 -22 20 -44 26 -48 39 -213 20 -236 -21 -25 -30
-17 -30 25 0 22 -4 40 -10 40 -19 0 -10 32 10 37 23 6 27 28 5 36 -8 4 -21 22
-29 41 -14 34 -64 66 -102 66 -19 0 -18 -29 1 -36 10 -4 13 -13 10 -25 -5 -14
0 -18 27 -21 18 -2 32 -7 32 -13 -3 -17 -95 -46 -160 -50 -38 -2 -83 -13 -119
-29 -31 -15 -77 -32 -101 -38 -51 -14 -56 -31 -15 -53 28 -14 33 -13 125 35
96 50 129 59 141 39 4 -5 8 -38 8 -71 l2 -61 -45 -15 c-25 -8 -66 -25 -91 -38
-26 -13 -54 -24 -62 -24 -26 0 -30 -20 -8 -41 11 -10 22 -19 25 -19 2 0 34 18
70 40 40 24 78 40 97 40 28 0 31 -2 23 -22 -4 -13 -8 -57 -9 -99 0 -62 4 -81
19 -98 14 -16 23 -18 38 -10 28 15 56 2 60 -29 2 -15 10 -28 19 -30 17 -3 33
24 48 83 8 29 20 45 42 58 37 21 42 18 58 -30 20 -59 93 -157 120 -161 21 -3
23 -1 18 20 -4 12 -7 49 -7 81 0 61 -14 77 -23 27 -9 -44 -23 -37 -52 26 -41
88 -41 104 -6 167 36 66 38 78 11 102 -24 22 -37 13 -42 -29 -2 -16 -9 -31
-16 -34 -10 -3 -13 10 -12 49 1 30 -3 70 -7 89 -5 19 -6 69 -3 110 8 81 -4
118 -41 127 -10 3 -19 9 -19 14 0 5 -9 9 -20 9 -11 0 -20 -2 -20 -5z m-58
-260 c-4 -42 -25 -75 -49 -75 -10 0 -12 9 -7 35 4 23 2 35 -5 35 -20 0 -12 27
12 38 39 19 52 11 49 -33z m112 -83 c3 -5 10 -39 16 -77 10 -62 9 -71 -8 -94
-35 -47 -46 -40 -39 26 5 51 3 63 -12 77 -24 22 -63 20 -95 -5 -15 -12 -29
-19 -32 -17 -11 12 11 37 49 56 91 43 112 49 121 34z m-94 -121 c12 -23 14
-128 3 -134 -14 -9 -86 8 -90 20 -3 7 14 21 37 33 34 17 39 24 30 35 -9 11
-17 12 -32 4 -28 -15 -47 4 -27 27 12 15 43 32 61 33 4 1 12 -8 18 -18z"/>
<path d="M760 2247 c0 -9 5 -19 11 -23 6 -3 8 -16 5 -28 -5 -21 -2 -23 39 -24
42 -2 45 0 45 23 0 27 -27 49 -72 60 -22 6 -28 4 -28 -8z"/>
<path d="M1200 2172 c0 -4 5 -13 12 -20 8 -8 8 -15 -2 -27 -16 -20 -6 -30 38
-38 22 -5 32 -3 33 6 3 32 -4 53 -23 70 -21 17 -58 23 -58 9z"/>
<path d="M753 2024 c-56 -27 -66 -42 -33 -51 11 -3 20 -12 20 -19 0 -19 4 -18
71 17 59 32 76 60 43 73 -26 10 -46 6 -101 -20z"/>
<path d="M1677 2043 c-4 -3 4 -21 18 -39 31 -40 32 -87 4 -133 -11 -18 -18
-35 -16 -37 10 -11 35 11 69 60 53 76 53 95 4 124 -42 25 -71 34 -79 25z"/>
<path d="M1508 1998 c-6 -48 -62 -151 -115 -209 -31 -34 -34 -43 -29 -74 4
-19 10 -35 14 -35 5 0 23 16 42 35 19 19 38 35 42 35 10 0 9 -70 -1 -135 -7
-37 -5 -60 6 -88 23 -56 46 -46 55 23 21 164 21 170 5 170 -8 0 -21 15 -28 33
-7 17 -14 34 -16 37 -2 3 24 39 57 79 33 41 60 81 60 91 0 14 -69 80 -83 80
-2 0 -7 -19 -9 -42z"/>
<path d="M1294 1935 c-9 -20 -14 -39 -10 -42 4 -4 28 -15 54 -25 l47 -18 22
27 c13 16 23 33 23 39 0 5 -23 19 -52 30 -29 10 -56 20 -59 22 -4 2 -15 -13
-25 -33z"/>
<path d="M1768 1843 c-14 -16 -33 -40 -43 -55 -19 -30 -45 -37 -45 -13 0 31
-18 14 -24 -22 -12 -78 -7 -157 14 -190 16 -27 26 -33 55 -33 28 0 37 -5 50
-30 19 -37 25 -37 57 -2 45 48 50 69 52 201 l1 125 -34 23 c-43 29 -52 29 -83
-4z m54 -163 c-1 -57 -7 -109 -12 -114 -6 -6 -18 -5 -32 3 -13 6 -34 10 -48 9
-21 -3 -26 2 -28 25 -3 23 0 27 21 27 35 0 70 31 61 53 -5 15 -13 17 -40 12
-48 -9 -45 14 9 59 66 56 72 49 69 -74z"/>
<path d="M574 1808 c-73 -63 -144 -144 -170 -195 -10 -21 -29 -46 -41 -56 -13
-10 -23 -22 -23 -27 0 -5 10 -10 23 -13 19 -3 18 -5 -10 -12 -37 -8 -44 -30
-13 -38 25 -7 25 -33 0 -75 -11 -18 -20 -42 -20 -55 0 -12 -13 -53 -29 -92
-21 -50 -26 -75 -19 -88 12 -22 1 -39 -22 -35 -20 3 -23 -2 -14 -27 8 -19 44
-20 44 0 0 8 7 15 15 15 18 0 19 -5 3 -29 -13 -21 9 -130 43 -208 27 -64 24
-77 -23 -114 -24 -18 -58 -46 -76 -63 -26 -25 -35 -28 -42 -17 -6 11 -19 6
-58 -27 -56 -48 -60 -49 -78 -25 -13 17 -15 17 -29 -1 -13 -18 -13 -22 1 -43
14 -22 13 -26 -5 -50 -26 -33 -19 -43 30 -43 29 0 45 6 61 25 12 14 29 25 38
25 8 0 26 7 38 16 18 13 21 19 11 30 -20 25 65 117 132 143 22 8 28 19 38 70
6 33 20 70 29 82 17 21 17 23 0 58 -9 20 -24 76 -33 125 -15 89 -15 90 7 113
28 30 18 39 -15 13 -27 -21 -47 -26 -47 -11 0 5 25 30 55 56 30 25 58 57 61
71 4 14 13 24 24 24 11 0 22 5 25 10 13 21 33 8 60 -42 l28 -51 -12 -127 c-12
-122 -9 -180 10 -180 5 0 7 11 4 23 -4 13 1 61 9 107 9 45 16 84 16 86 0 2 8
4 18 4 13 0 29 -23 56 -80 28 -59 49 -90 83 -118 104 -85 99 -78 84 -96 -7 -9
-24 -16 -38 -16 -13 0 -37 -7 -53 -15 -26 -14 -28 -18 -18 -35 7 -10 10 -21 7
-24 -3 -3 -39 8 -80 23 -40 16 -103 35 -138 41 -78 14 -91 5 -98 -66 -8 -89
-11 -97 -38 -90 -17 4 -25 2 -25 -7 0 -17 110 -109 124 -104 6 2 10 18 8 36
-3 43 25 42 43 -2 18 -44 89 -98 200 -153 164 -81 357 -104 537 -64 48 10 97
24 110 31 19 10 25 8 45 -15 31 -36 29 -54 -10 -98 l-32 -38 -355 30 c-195 16
-393 34 -440 40 -164 19 -173 5 -15 -24 50 -9 187 -34 305 -57 747 -140 1176
-223 1218 -235 29 -8 29 9 0 29 -13 8 -67 51 -122 96 -77 64 -105 81 -130 81
-51 0 -56 12 -56 137 l0 113 -37 19 c-21 11 -51 32 -66 46 l-28 27 19 31 c38
65 116 77 169 25 39 -37 55 -30 29 13 -26 44 -6 59 28 22 14 -15 26 -31 26
-34 0 -4 12 -15 28 -24 25 -16 24 -15 -7 18 -45 48 -32 64 23 26 41 -29 136
-54 123 -32 -4 6 -19 13 -34 16 -35 8 -93 43 -93 57 0 14 31 12 60 -5 14 -8
48 -14 76 -15 48 0 55 3 96 44 24 24 61 49 81 55 20 7 37 17 37 22 0 19 -58
21 -141 4 -129 -26 -136 -23 -267 134 -31 37 -32 42 -23 83 27 119 22 270 -11
393 -15 53 -26 64 -42 43 -7 -10 -18 -18 -24 -18 -21 0 -23 -20 -7 -79 8 -32
15 -72 15 -88 0 -17 9 -38 20 -48 11 -10 20 -23 20 -30 0 -7 -9 -20 -20 -30
-12 -11 -20 -32 -21 -54 -3 -85 -9 -94 -70 -106 -32 -7 -74 -22 -94 -34 -33
-19 -40 -20 -54 -8 -29 26 -127 77 -147 76 -17 0 -17 -1 4 -16 32 -23 28 -37
-10 -29 -17 3 -88 13 -157 21 -69 8 -153 22 -186 30 -72 19 -145 60 -145 81 0
9 3 14 8 12 97 -50 218 -84 237 -67 5 5 -5 9 -27 9 -40 0 -59 17 -37 31 8 5
26 9 40 9 14 0 44 9 67 20 22 11 48 20 57 20 8 0 15 5 15 10 0 15 -58 12 -83
-5 -12 -8 -48 -17 -78 -21 -67 -8 -102 10 -120 60 -7 20 -25 40 -47 52 -35 18
-84 84 -64 84 6 0 25 -13 42 -29 18 -16 56 -37 86 -46 30 -9 56 -21 60 -26 7
-12 44 -12 44 0 0 5 -11 16 -25 25 -26 17 -33 36 -14 36 6 0 24 -9 39 -20 16
-11 31 -16 34 -11 9 14 -43 51 -71 51 -50 0 -271 135 -252 154 8 8 137 11 145
3 13 -12 -8 -27 -32 -21 -40 10 -27 -12 26 -45 60 -37 76 -40 35 -7 -44 35
-24 50 60 44 70 -4 85 -14 85 -56 0 -45 25 -16 28 32 4 59 -13 87 -76 127 -44
28 -51 29 -164 29 -95 0 -118 3 -118 14 0 8 15 20 33 27 l32 13 -32 3 c-38 5
-40 9 -16 35 26 29 5 34 -25 5 -43 -41 -119 -78 -150 -72 -25 5 -25 5 -4 -4
23 -11 31 -41 10 -41 -7 0 -26 7 -42 15 -33 17 -56 19 -56 5 0 -16 -36 -12
-51 6 -7 9 -22 14 -36 11 -42 -8 -25 23 57 108 70 71 81 87 83 120 3 56 -17
54 -89 -7z m260 -217 c-23 -22 -74 -36 -74 -21 0 12 81 52 89 44 3 -2 -4 -13
-15 -23z m-309 -42 c22 -5 65 -13 96 -18 31 -5 69 -16 85 -24 50 -26 215 -210
334 -370 14 -19 14 -19 -15 -4 -35 18 -78 62 -162 167 -128 159 -174 190 -313
210 -30 5 -63 11 -73 15 -9 4 -24 2 -33 -6 -12 -10 -18 -9 -32 5 -16 16 -16
18 3 32 12 9 30 13 45 9 14 -3 43 -10 65 -16z m582 -22 c40 -15 83 -52 83 -72
0 -12 -8 -10 -37 10 -35 23 -46 25 -150 25 -109 0 -163 10 -163 29 0 6 39 12
88 14 48 1 101 3 117 4 17 1 44 -4 62 -10z m-727 -172 c-7 -8 -19 -15 -26 -15
-20 0 -17 38 4 43 25 5 37 -9 22 -28z m1034 -425 c26 -40 35 -90 16 -90 -10 0
-60 102 -60 121 0 20 19 7 44 -31z m262 -67 c26 -58 32 -117 12 -111 -7 3 -17
24 -23 49 -7 24 -19 59 -29 77 -17 33 -14 58 6 46 6 -4 21 -31 34 -61z m190
-68 c48 -57 52 -81 9 -55 -25 16 -85 87 -85 101 0 24 33 3 76 -46z m-1356 21
c0 -15 -24 -28 -34 -19 -13 14 -5 33 14 33 11 0 20 -6 20 -14z m161 -50 c74
-32 234 -71 414 -101 137 -23 152 -27 170 -52 11 -15 35 -43 53 -64 17 -20 32
-41 32 -46 0 -14 -64 -32 -166 -45 -76 -10 -107 -9 -185 4 -168 27 -288 89
-412 211 -94 94 -92 108 19 116 12 0 46 -10 75 -23z m1402 -19 c32 -13 36 -37
7 -37 -24 0 -120 47 -120 59 0 18 14 19 49 4 20 -8 48 -20 64 -26z m-692 -68
c71 -73 78 -95 10 -31 -9 9 -25 12 -45 7 -87 -18 -129 1 -62 29 27 11 33 19
29 35 -9 33 6 25 68 -40z m-856 11 c8 -13 -39 -34 -59 -27 -9 4 -16 13 -16 22
0 17 65 22 75 5z m1057 -211 c18 -11 55 -34 81 -50 34 -21 54 -42 67 -72 20
-42 26 -102 13 -110 -5 -3 -68 0 -140 6 -91 7 -133 14 -133 22 0 7 18 35 40
63 45 57 48 71 20 97 -31 28 -25 60 12 64 4 1 22 -8 40 -20z"/>
<path d="M755 1817 c-33 -18 -62 -33 -64 -34 -2 -1 2 -25 9 -53 14 -59 45
-102 58 -82 5 7 24 21 42 30 31 16 80 87 80 117 0 13 -46 55 -59 55 -3 -1 -33
-15 -66 -33z m58 -33 c9 -9 -12 -49 -34 -62 -25 -16 -39 -8 -39 22 0 29 54 58
73 40z"/>
<path d="M1597 1813 c-11 -18 -12 -96 -1 -100 15 -5 29 86 16 99 -5 5 -12 6
-15 1z"/>
<path d="M1592 1460 c-19 -32 -14 -42 13 -24 26 17 34 44 12 44 -7 0 -18 -9
-25 -20z"/>
<path d="M1711 1411 c-21 -39 -51 -56 -51 -27 0 22 -23 36 -40 25 -13 -8 -13
-11 3 -20 12 -7 17 -23 17 -58 0 -54 -4 -61 -31 -54 -21 6 -25 33 -7 51 9 9 9
12 1 12 -7 0 -13 10 -15 22 -2 12 -8 23 -15 25 -9 3 -11 -12 -10 -54 2 -52 5
-59 30 -71 31 -15 36 -42 8 -42 -11 0 -21 -5 -23 -11 -3 -10 -50 -25 -126 -38
-48 -9 -62 -19 -43 -30 7 -5 47 2 93 15 44 13 84 21 89 18 5 -3 9 -30 9 -60 0
-47 -2 -54 -20 -54 -25 0 -25 -12 -1 -34 28 -25 42 -1 50 86 l6 73 88 -1 c48
0 87 3 87 7 0 17 -28 24 -95 24 -63 0 -70 2 -70 20 0 14 6 19 20 17 26 -3 95
19 95 30 0 4 -11 8 -25 8 -32 0 -32 10 0 40 25 23 24 46 -1 36 -23 -9 -25 10
-3 39 15 18 18 30 11 37 -7 7 -17 -2 -31 -31z m-21 -101 c0 -11 -6 -20 -13
-20 -19 0 -27 10 -20 26 8 21 33 17 33 -6z"/>
<path d="M1500 1413 c0 -10 -13 -34 -30 -53 -32 -38 -40 -80 -15 -80 8 0 15 5
15 10 0 6 7 10 15 10 19 0 19 -15 0 -44 -14 -22 -12 -56 4 -56 4 0 17 13 28
28 15 20 18 33 12 45 -6 11 -6 24 1 36 11 21 -1 37 -19 26 -17 -10 -21 11 -6
31 17 22 19 50 5 59 -5 3 -10 -2 -10 -12z"/>
<path d="M476 1304 c-8 -22 -8 -24 8 -24 8 0 18 -9 21 -21 4 -11 9 -18 12 -15
5 5 -24 76 -31 76 -2 0 -7 -7 -10 -16z"/>
<path d="M431 1246 c-14 -14 -22 -28 -20 -30 8 -9 52 31 48 43 -3 8 -13 3 -28
-13z"/>
<path d="M1200 1221 c-17 -14 -20 -20 -10 -21 22 0 43 16 38 30 -2 8 -11 5
-28 -9z"/>
<path d="M1680 1134 c0 -15 43 -64 56 -64 20 0 17 27 -6 50 -19 19 -50 27 -50
14z"/>
<path d="M1489 1109 c-14 -28 3 -48 26 -29 19 16 19 36 0 44 -9 3 -19 -3 -26
-15z"/>
<path d="M507 1088 c-23 -35 -39 -106 -32 -139 10 -46 23 -34 30 29 4 31 11
72 17 90 12 41 5 52 -15 20z"/>
<path d="M580 916 c0 -17 99 -86 122 -86 17 0 -38 52 -84 79 -32 19 -38 20
-38 7z"/>
<path d="M520 910 c0 -5 7 -10 16 -10 8 0 12 5 9 10 -3 6 -10 10 -16 10 -5 0
-9 -4 -9 -10z"/>
</g>
</svg>
